<svg width="1500" height="65" viewBox="0 0 1500 65" fill="none" xmlns="http://www.w3.org/2000/svg">
<rect width="1501" height="65" transform="translate(-1)" fill="#0B0B0B"/>
<path d="M645.592 33.416C645.592 32.328 645.843 31.352 646.344 30.488C646.856 29.624 647.544 28.952 648.408 28.472C649.283 27.9813 650.237 27.736 651.272 27.736C652.456 27.736 653.507 28.0293 654.424 28.616C655.352 29.192 656.024 30.0133 656.44 31.08H654.248C653.96 30.4933 653.56 30.056 653.048 29.768C652.536 29.48 651.944 29.336 651.272 29.336C650.536 29.336 649.88 29.5013 649.304 29.832C648.728 30.1627 648.275 30.6373 647.944 31.256C647.624 31.8747 647.464 32.5947 647.464 33.416C647.464 34.2373 647.624 34.9573 647.944 35.576C648.275 36.1947 648.728 36.6747 649.304 37.016C649.88 37.3467 650.536 37.512 651.272 37.512C651.944 37.512 652.536 37.368 653.048 37.08C653.56 36.792 653.96 36.3547 654.248 35.768H656.44C656.024 36.8347 655.352 37.656 654.424 38.232C653.507 38.808 652.456 39.096 651.272 39.096C650.227 39.096 649.272 38.856 648.408 38.376C647.544 37.8853 646.856 37.208 646.344 36.344C645.843 35.48 645.592 34.504 645.592 33.416ZM662.399 39.144C661.567 39.144 660.815 38.9573 660.143 38.584C659.471 38.2 658.943 37.6667 658.559 36.984C658.175 36.2907 657.983 35.4907 657.983 34.584C657.983 33.688 658.18 32.8933 658.575 32.2C658.97 31.5067 659.508 30.9733 660.191 30.6C660.874 30.2267 661.636 30.04 662.479 30.04C663.322 30.04 664.084 30.2267 664.767 30.6C665.45 30.9733 665.988 31.5067 666.383 32.2C666.778 32.8933 666.975 33.688 666.975 34.584C666.975 35.48 666.772 36.2747 666.367 36.968C665.962 37.6613 665.407 38.2 664.703 38.584C664.01 38.9573 663.242 39.144 662.399 39.144ZM662.399 37.56C662.868 37.56 663.306 37.448 663.711 37.224C664.127 37 664.463 36.664 664.719 36.216C664.975 35.768 665.103 35.224 665.103 34.584C665.103 33.944 664.98 33.4053 664.735 32.968C664.49 32.52 664.164 32.184 663.759 31.96C663.354 31.736 662.916 31.624 662.447 31.624C661.978 31.624 661.54 31.736 661.135 31.96C660.74 32.184 660.426 32.52 660.191 32.968C659.956 33.4053 659.839 33.944 659.839 34.584C659.839 35.5333 660.079 36.2693 660.559 36.792C661.05 37.304 661.663 37.56 662.399 37.56ZM670.602 31.48C670.911 31.0747 671.333 30.7333 671.866 30.456C672.399 30.1787 673.002 30.04 673.674 30.04C674.442 30.04 675.141 30.232 675.77 30.616C676.41 30.9893 676.911 31.5173 677.274 32.2C677.637 32.8827 677.818 33.6667 677.818 34.552C677.818 35.4373 677.637 36.232 677.274 36.936C676.911 37.6293 676.41 38.1733 675.77 38.568C675.141 38.952 674.442 39.144 673.674 39.144C673.002 39.144 672.405 39.0107 671.882 38.744C671.359 38.4667 670.933 38.1253 670.602 37.72V43.192H668.778V30.184H670.602V31.48ZM675.962 34.552C675.962 33.944 675.834 33.4213 675.578 32.984C675.333 32.536 675.002 32.2 674.586 31.976C674.181 31.7413 673.743 31.624 673.274 31.624C672.815 31.624 672.378 31.7413 671.962 31.976C671.557 32.2107 671.226 32.552 670.97 33C670.725 33.448 670.602 33.976 670.602 34.584C670.602 35.192 670.725 35.7253 670.97 36.184C671.226 36.632 671.557 36.9733 671.962 37.208C672.378 37.4427 672.815 37.56 673.274 37.56C673.743 37.56 674.181 37.4427 674.586 37.208C675.002 36.9627 675.333 36.6107 675.578 36.152C675.834 35.6933 675.962 35.16 675.962 34.552ZM687.558 30.184L682.15 43.144H680.262L682.054 38.856L678.582 30.184H680.614L683.094 36.904L685.67 30.184H687.558ZM690.758 31.464C691.025 31.016 691.377 30.6693 691.814 30.424C692.262 30.168 692.79 30.04 693.398 30.04V31.928H692.934C692.22 31.928 691.676 32.1093 691.302 32.472C690.94 32.8347 690.758 33.464 690.758 34.36V39H688.934V30.184H690.758V31.464ZM696.003 29.016C695.672 29.016 695.395 28.904 695.171 28.68C694.947 28.456 694.835 28.1787 694.835 27.848C694.835 27.5173 694.947 27.24 695.171 27.016C695.395 26.792 695.672 26.68 696.003 26.68C696.323 26.68 696.595 26.792 696.819 27.016C697.043 27.24 697.155 27.5173 697.155 27.848C697.155 28.1787 697.043 28.456 696.819 28.68C696.595 28.904 696.323 29.016 696.003 29.016ZM696.899 30.184V39H695.075V30.184H696.899ZM702.846 30.04C703.528 30.04 704.131 30.1787 704.654 30.456C705.187 30.7227 705.603 31.0587 705.902 31.464V30.184H707.742V39.144C707.742 39.9547 707.571 40.6747 707.23 41.304C706.888 41.944 706.392 42.4453 705.742 42.808C705.102 43.1707 704.334 43.352 703.438 43.352C702.243 43.352 701.251 43.0693 700.462 42.504C699.672 41.9493 699.224 41.192 699.118 40.232H700.926C701.064 40.6907 701.358 41.0587 701.806 41.336C702.264 41.624 702.808 41.768 703.438 41.768C704.174 41.768 704.766 41.544 705.214 41.096C705.672 40.648 705.902 39.9973 705.902 39.144V37.672C705.592 38.088 705.171 38.44 704.638 38.728C704.115 39.0053 703.518 39.144 702.846 39.144C702.078 39.144 701.374 38.952 700.734 38.568C700.104 38.1733 699.603 37.6293 699.23 36.936C698.867 36.232 698.686 35.4373 698.686 34.552C698.686 33.6667 698.867 32.8827 699.23 32.2C699.603 31.5173 700.104 30.9893 700.734 30.616C701.374 30.232 702.078 30.04 702.846 30.04ZM705.902 34.584C705.902 33.976 705.774 33.448 705.518 33C705.272 32.552 704.947 32.2107 704.542 31.976C704.136 31.7413 703.699 31.624 703.23 31.624C702.76 31.624 702.323 31.7413 701.918 31.976C701.512 32.2 701.182 32.536 700.926 32.984C700.68 33.4213 700.558 33.944 700.558 34.552C700.558 35.16 700.68 35.6933 700.926 36.152C701.182 36.6107 701.512 36.9627 701.918 37.208C702.334 37.4427 702.771 37.56 703.23 37.56C703.699 37.56 704.136 37.4427 704.542 37.208C704.947 36.9733 705.272 36.632 705.518 36.184C705.774 35.7253 705.902 35.192 705.902 34.584ZM714.698 30.04C715.37 30.04 715.967 30.184 716.49 30.472C717.023 30.76 717.439 31.1867 717.738 31.752C718.047 32.3173 718.202 33 718.202 33.8V39H716.394V34.072C716.394 33.2827 716.196 32.68 715.802 32.264C715.407 31.8373 714.868 31.624 714.186 31.624C713.503 31.624 712.959 31.8373 712.554 32.264C712.159 32.68 711.962 33.2827 711.962 34.072V39H710.138V27.16H711.962V31.208C712.271 30.8347 712.66 30.5467 713.13 30.344C713.61 30.1413 714.132 30.04 714.698 30.04ZM722.656 31.672V36.552C722.656 36.8827 722.731 37.1227 722.88 37.272C723.04 37.4107 723.307 37.48 723.68 37.48H724.8V39H723.36C722.539 39 721.909 38.808 721.472 38.424C721.035 38.04 720.816 37.416 720.816 36.552V31.672H719.776V30.184H720.816V27.992H722.656V30.184H724.8V31.672H722.656ZM738.845 28.664C740.062 28.664 741.112 28.888 741.998 29.336C742.883 29.784 743.555 30.4133 744.014 31.224C744.483 32.024 744.718 32.9573 744.718 34.024C744.718 34.8773 744.568 35.6933 744.27 36.472C743.982 37.2507 743.56 37.8853 743.006 38.376C742.462 38.8667 741.816 39.112 741.07 39.112C740.526 39.112 740.099 38.9947 739.79 38.76C739.48 38.5147 739.288 38.1733 739.214 37.736C738.883 38.1627 738.467 38.4987 737.966 38.744C737.464 38.9893 736.942 39.112 736.398 39.112C735.576 39.112 734.931 38.8667 734.462 38.376C734.003 37.8747 733.774 37.1973 733.774 36.344C733.774 35.5333 733.939 34.776 734.27 34.072C734.611 33.368 735.086 32.808 735.694 32.392C736.302 31.9653 736.984 31.752 737.742 31.752C738.67 31.752 739.32 32.0667 739.694 32.696L739.838 31.896H741.422L740.622 36.472C740.59 36.696 740.574 36.8933 740.574 37.064C740.574 37.3413 740.627 37.5493 740.734 37.688C740.851 37.8267 741.054 37.896 741.342 37.896C741.747 37.896 742.094 37.6987 742.382 37.304C742.67 36.8987 742.883 36.4027 743.022 35.816C743.171 35.2293 743.246 34.6587 743.246 34.104C743.246 32.7493 742.851 31.7147 742.062 31C741.272 30.2853 740.126 29.928 738.622 29.928C737.363 29.928 736.232 30.2267 735.23 30.824C734.238 31.4213 733.459 32.2427 732.894 33.288C732.328 34.3333 732.046 35.496 732.046 36.776C732.046 38.1413 732.451 39.1813 733.262 39.896C734.072 40.6107 735.23 40.968 736.734 40.968C737.747 40.968 738.632 40.7813 739.39 40.408L739.63 41.624C738.659 42.04 737.571 42.248 736.366 42.248C735.203 42.248 734.184 42.0293 733.31 41.592C732.435 41.1547 731.758 40.5307 731.278 39.72C730.798 38.92 730.558 37.9867 730.558 36.92C730.558 35.3947 730.91 34.0027 731.614 32.744C732.328 31.4853 733.315 30.4933 734.574 29.768C735.832 29.032 737.256 28.664 738.845 28.664ZM736.958 37.704C737.406 37.704 737.811 37.576 738.174 37.32C738.547 37.0533 738.84 36.7067 739.054 36.28C739.267 35.8427 739.374 35.3787 739.374 34.888C739.374 34.376 739.23 33.96 738.942 33.64C738.664 33.3093 738.27 33.144 737.758 33.144C737.299 33.144 736.894 33.288 736.542 33.576C736.2 33.8533 735.934 34.216 735.742 34.664C735.56 35.112 735.47 35.5813 735.47 36.072C735.47 36.5733 735.592 36.9733 735.838 37.272C736.083 37.56 736.456 37.704 736.958 37.704ZM751.968 36.52C752.992 35.6347 753.797 34.9093 754.384 34.344C754.981 33.768 755.477 33.1707 755.872 32.552C756.267 31.9333 756.464 31.3147 756.464 30.696C756.464 30.056 756.309 29.5547 756 29.192C755.701 28.8293 755.227 28.648 754.576 28.648C753.947 28.648 753.456 28.8507 753.104 29.256C752.763 29.6507 752.581 30.184 752.56 30.856H750.8C750.832 29.64 751.195 28.712 751.888 28.072C752.592 27.4213 753.483 27.096 754.56 27.096C755.723 27.096 756.629 27.416 757.28 28.056C757.941 28.696 758.272 29.5493 758.272 30.616C758.272 31.384 758.075 32.1253 757.68 32.84C757.296 33.544 756.832 34.1787 756.288 34.744C755.755 35.2987 755.072 35.944 754.24 36.68L753.52 37.32H758.592V38.84H750.816V37.512L751.968 36.52ZM760.194 33.016C760.194 31.1707 760.504 29.7307 761.122 28.696C761.752 27.6507 762.829 27.128 764.354 27.128C765.88 27.128 766.952 27.6507 767.57 28.696C768.2 29.7307 768.514 31.1707 768.514 33.016C768.514 34.8827 768.2 36.344 767.57 37.4C766.952 38.4453 765.88 38.968 764.354 38.968C762.829 38.968 761.752 38.4453 761.122 37.4C760.504 36.344 760.194 34.8827 760.194 33.016ZM766.722 33.016C766.722 32.152 766.664 31.4213 766.546 30.824C766.44 30.2267 766.216 29.7413 765.874 29.368C765.533 28.984 765.026 28.792 764.354 28.792C763.682 28.792 763.176 28.984 762.834 29.368C762.493 29.7413 762.264 30.2267 762.146 30.824C762.04 31.4213 761.986 32.152 761.986 33.016C761.986 33.912 762.04 34.664 762.146 35.272C762.253 35.88 762.477 36.3707 762.818 36.744C763.17 37.1173 763.682 37.304 764.354 37.304C765.026 37.304 765.533 37.1173 765.874 36.744C766.226 36.3707 766.456 35.88 766.562 35.272C766.669 34.664 766.722 33.912 766.722 33.016ZM771.452 36.52C772.476 35.6347 773.282 34.9093 773.868 34.344C774.466 33.768 774.962 33.1707 775.356 32.552C775.751 31.9333 775.948 31.3147 775.948 30.696C775.948 30.056 775.794 29.5547 775.484 29.192C775.186 28.8293 774.711 28.648 774.06 28.648C773.431 28.648 772.94 28.8507 772.588 29.256C772.247 29.6507 772.066 30.184 772.044 30.856H770.284C770.316 29.64 770.679 28.712 771.372 28.072C772.076 27.4213 772.967 27.096 774.044 27.096C775.207 27.096 776.114 27.416 776.764 28.056C777.426 28.696 777.756 29.5493 777.756 30.616C777.756 31.384 777.559 32.1253 777.164 32.84C776.78 33.544 776.316 34.1787 775.772 34.744C775.239 35.2987 774.556 35.944 773.724 36.68L773.004 37.32H778.076V38.84H770.3V37.512L771.452 36.52ZM780.687 36.52C781.711 35.6347 782.516 34.9093 783.103 34.344C783.7 33.768 784.196 33.1707 784.591 32.552C784.985 31.9333 785.183 31.3147 785.183 30.696C785.183 30.056 785.028 29.5547 784.719 29.192C784.42 28.8293 783.945 28.648 783.295 28.648C782.665 28.648 782.175 28.8507 781.823 29.256C781.481 29.6507 781.3 30.184 781.279 30.856H779.519C779.551 29.64 779.913 28.712 780.607 28.072C781.311 27.4213 782.201 27.096 783.279 27.096C784.441 27.096 785.348 27.416 785.999 28.056C786.66 28.696 786.991 29.5493 786.991 30.616C786.991 31.384 786.793 32.1253 786.399 32.84C786.015 33.544 785.551 34.1787 785.007 34.744C784.473 35.2987 783.791 35.944 782.959 36.68L782.239 37.32H787.311V38.84H779.535V37.512L780.687 36.52ZM795.613 40.808H793.789V26.184H795.613V40.808ZM814.365 27.88V39H812.541V31.384L809.149 39H807.885L804.477 31.384V39H802.653V27.88H804.621L808.525 36.6L812.413 27.88H814.365ZM820.587 39.144C819.755 39.144 819.003 38.9573 818.331 38.584C817.659 38.2 817.131 37.6667 816.747 36.984C816.363 36.2907 816.171 35.4907 816.171 34.584C816.171 33.688 816.368 32.8933 816.763 32.2C817.157 31.5067 817.696 30.9733 818.379 30.6C819.061 30.2267 819.824 30.04 820.667 30.04C821.509 30.04 822.272 30.2267 822.955 30.6C823.637 30.9733 824.176 31.5067 824.571 32.2C824.965 32.8933 825.163 33.688 825.163 34.584C825.163 35.48 824.96 36.2747 824.555 36.968C824.149 37.6613 823.595 38.2 822.891 38.584C822.197 38.9573 821.429 39.144 820.587 39.144ZM820.587 37.56C821.056 37.56 821.493 37.448 821.899 37.224C822.315 37 822.651 36.664 822.907 36.216C823.163 35.768 823.291 35.224 823.291 34.584C823.291 33.944 823.168 33.4053 822.923 32.968C822.677 32.52 822.352 32.184 821.947 31.96C821.541 31.736 821.104 31.624 820.635 31.624C820.165 31.624 819.728 31.736 819.323 31.96C818.928 32.184 818.613 32.52 818.379 32.968C818.144 33.4053 818.027 33.944 818.027 34.584C818.027 35.5333 818.267 36.2693 818.747 36.792C819.237 37.304 819.851 37.56 820.587 37.56ZM831.526 30.04C832.198 30.04 832.795 30.184 833.318 30.472C833.851 30.76 834.267 31.1867 834.566 31.752C834.875 32.3173 835.03 33 835.03 33.8V39H833.222V34.072C833.222 33.2827 833.024 32.68 832.63 32.264C832.235 31.8373 831.696 31.624 831.014 31.624C830.331 31.624 829.787 31.8373 829.382 32.264C828.987 32.68 828.79 33.2827 828.79 34.072V39H826.966V27.16H828.79V31.208C829.099 30.8347 829.488 30.5467 829.958 30.344C830.438 30.1413 830.96 30.04 831.526 30.04ZM838.284 29.016C837.954 29.016 837.676 28.904 837.452 28.68C837.228 28.456 837.116 28.1787 837.116 27.848C837.116 27.5173 837.228 27.24 837.452 27.016C837.676 26.792 837.954 26.68 838.284 26.68C838.604 26.68 838.876 26.792 839.1 27.016C839.324 27.24 839.436 27.5173 839.436 27.848C839.436 28.1787 839.324 28.456 839.1 28.68C838.876 28.904 838.604 29.016 838.284 29.016ZM839.18 30.184V39H837.356V30.184H839.18ZM840.967 34.552C840.967 33.6667 841.148 32.8827 841.511 32.2C841.884 31.5173 842.386 30.9893 843.015 30.616C843.655 30.232 844.364 30.04 845.143 30.04C845.719 30.04 846.284 30.168 846.839 30.424C847.404 30.6693 847.852 31 848.183 31.416V27.16H850.023V39H848.183V37.672C847.884 38.0987 847.468 38.4507 846.935 38.728C846.412 39.0053 845.81 39.144 845.127 39.144C844.359 39.144 843.655 38.952 843.015 38.568C842.386 38.1733 841.884 37.6293 841.511 36.936C841.148 36.232 840.967 35.4373 840.967 34.552ZM848.183 34.584C848.183 33.976 848.055 33.448 847.799 33C847.554 32.552 847.228 32.2107 846.823 31.976C846.418 31.7413 845.98 31.624 845.511 31.624C845.042 31.624 844.604 31.7413 844.199 31.976C843.794 32.2 843.463 32.536 843.207 32.984C842.962 33.4213 842.839 33.944 842.839 34.552C842.839 35.16 842.962 35.6933 843.207 36.152C843.463 36.6107 843.794 36.9627 844.199 37.208C844.615 37.4427 845.052 37.56 845.511 37.56C845.98 37.56 846.418 37.4427 846.823 37.208C847.228 36.9733 847.554 36.632 847.799 36.184C848.055 35.7253 848.183 35.192 848.183 34.584Z" fill="white"/>
</svg>
