<svg width="196" height="46" viewBox="0 0 196 46" fill="none" xmlns="http://www.w3.org/2000/svg">
<path d="M0 15C0 6.71573 6.71573 0 15 0H181C189.284 0 196 6.71573 196 15V31C196 39.2843 189.284 46 181 46H15C6.71573 46 0 39.2843 0 31V15Z" fill="#3858D6"/>
<path d="M62.3044 16.436L57.6964 29H54.6364L50.0284 16.436H52.7284L56.1844 26.426L59.6224 16.436H62.3044ZM65.0932 17.84C64.6492 17.84 64.2772 17.702 63.9772 17.426C63.6892 17.138 63.5452 16.784 63.5452 16.364C63.5452 15.944 63.6892 15.596 63.9772 15.32C64.2772 15.032 64.6492 14.888 65.0932 14.888C65.5372 14.888 65.9032 15.032 66.1912 15.32C66.4912 15.596 66.6412 15.944 66.6412 16.364C66.6412 16.784 66.4912 17.138 66.1912 17.426C65.9032 17.702 65.5372 17.84 65.0932 17.84ZM66.3352 19.028V29H63.8152V19.028H66.3352ZM78.095 23.798C78.095 24.158 78.071 24.482 78.023 24.77H70.733C70.793 25.49 71.045 26.054 71.489 26.462C71.933 26.87 72.479 27.074 73.127 27.074C74.063 27.074 74.729 26.672 75.125 25.868H77.843C77.555 26.828 77.003 27.62 76.187 28.244C75.371 28.856 74.369 29.162 73.181 29.162C72.221 29.162 71.357 28.952 70.589 28.532C69.833 28.1 69.239 27.494 68.807 26.714C68.387 25.934 68.177 25.034 68.177 24.014C68.177 22.982 68.387 22.076 68.807 21.296C69.227 20.516 69.815 19.916 70.571 19.496C71.327 19.076 72.197 18.866 73.181 18.866C74.129 18.866 74.975 19.07 75.719 19.478C76.475 19.886 77.057 20.468 77.465 21.224C77.885 21.968 78.095 22.826 78.095 23.798ZM75.485 23.078C75.473 22.43 75.239 21.914 74.783 21.53C74.327 21.134 73.769 20.936 73.109 20.936C72.485 20.936 71.957 21.128 71.525 21.512C71.105 21.884 70.847 22.406 70.751 23.078H75.485ZM93.7584 19.028L90.8424 29H88.1244L86.3064 22.034L84.4884 29H81.7524L78.8184 19.028H81.3744L83.1384 26.624L85.0464 19.028H87.7104L89.5824 26.606L91.3464 19.028H93.7584ZM113.109 16.436V29H110.589V20.828L107.223 29H105.315L101.931 20.828V29H99.4109V16.436H102.273L106.269 25.778L110.265 16.436H113.109ZM120.028 29.162C119.068 29.162 118.204 28.952 117.436 28.532C116.668 28.1 116.062 27.494 115.618 26.714C115.186 25.934 114.97 25.034 114.97 24.014C114.97 22.994 115.192 22.094 115.636 21.314C116.092 20.534 116.71 19.934 117.49 19.514C118.27 19.082 119.14 18.866 120.1 18.866C121.06 18.866 121.93 19.082 122.71 19.514C123.49 19.934 124.102 20.534 124.546 21.314C125.002 22.094 125.23 22.994 125.23 24.014C125.23 25.034 124.996 25.934 124.528 26.714C124.072 27.494 123.448 28.1 122.656 28.532C121.876 28.952 121 29.162 120.028 29.162ZM120.028 26.966C120.484 26.966 120.91 26.858 121.306 26.642C121.714 26.414 122.038 26.078 122.278 25.634C122.518 25.19 122.638 24.65 122.638 24.014C122.638 23.066 122.386 22.34 121.882 21.836C121.39 21.32 120.784 21.062 120.064 21.062C119.344 21.062 118.738 21.32 118.246 21.836C117.766 22.34 117.526 23.066 117.526 24.014C117.526 24.962 117.76 25.694 118.228 26.21C118.708 26.714 119.308 26.966 120.028 26.966ZM129.599 20.576C129.923 20.048 130.343 19.634 130.859 19.334C131.387 19.034 131.987 18.884 132.659 18.884V21.53H131.993C131.201 21.53 130.601 21.716 130.193 22.088C129.797 22.46 129.599 23.108 129.599 24.032V29H127.079V19.028H129.599V20.576ZM143.626 23.798C143.626 24.158 143.602 24.482 143.554 24.77H136.264C136.324 25.49 136.576 26.054 137.02 26.462C137.464 26.87 138.01 27.074 138.658 27.074C139.594 27.074 140.26 26.672 140.656 25.868H143.374C143.086 26.828 142.534 27.62 141.718 28.244C140.902 28.856 139.9 29.162 138.712 29.162C137.752 29.162 136.888 28.952 136.12 28.532C135.364 28.1 134.77 27.494 134.338 26.714C133.918 25.934 133.708 25.034 133.708 24.014C133.708 22.982 133.918 22.076 134.338 21.296C134.758 20.516 135.346 19.916 136.102 19.496C136.858 19.076 137.728 18.866 138.712 18.866C139.66 18.866 140.506 19.07 141.25 19.478C142.006 19.886 142.588 20.468 142.996 21.224C143.416 21.968 143.626 22.826 143.626 23.798ZM141.016 23.078C141.004 22.43 140.77 21.914 140.314 21.53C139.858 21.134 139.3 20.936 138.64 20.936C138.016 20.936 137.488 21.128 137.056 21.512C136.636 21.884 136.378 22.406 136.282 23.078H141.016Z" fill="white"/>
</svg>
